<?xml version="1.0" standalone="no"?>
<!DOCTYPE svg PUBLIC "-//W3C//DTD SVG 20010904//EN"
 "http://www.w3.org/TR/2001/REC-SVG-20010904/DTD/svg10.dtd">
<svg version="1.0" xmlns="http://www.w3.org/2000/svg"
 width="1213.000000pt" height="983.000000pt" viewBox="0 0 1213.000000 983.000000"
 preserveAspectRatio="xMidYMid meet">
<metadata>
Created by potrace 1.16, written by Peter Selinger 2001-2019
</metadata>
<g transform="translate(0.000000,983.000000) scale(0.100000,-0.100000)"
fill="#d9d9d9" stroke="none">
<path d="M4892 9821 c-18 -3 -33 -10 -34 -16 -5 -58 62 -645 113 -995 411
-2808 1536 -5439 3382 -7909 l190 -255 -26 -46 c-57 -101 -70 -215 -37 -322
83 -270 401 -363 605 -177 201 185 158 523 -83 641 -62 31 -74 33 -167 33 -85
0 -107 -4 -150 -24 -27 -14 -53 -25 -56 -25 -16 -2 -399 518 -642 871 -1477
2142 -2437 4449 -2847 6843 -66 391 -127 843 -160 1190 -17 190 -19 200 -38
199 -9 -1 -32 -4 -50 -8z"/>
<path d="M3725 9341 l-270 -26 3 -40 c8 -110 56 -519 88 -745 239 -1735 727
-3400 1463 -4997 l102 -221 73 33 c40 18 96 45 124 59 28 14 54 26 57 26 3 0
55 -99 115 -221 l111 -221 -41 -45 c-23 -24 -54 -70 -68 -101 -23 -48 -27 -71
-27 -147 0 -80 3 -97 32 -157 38 -81 102 -146 181 -185 51 -25 67 -28 162 -28
96 0 110 2 159 28 73 39 146 109 176 171 93 190 16 415 -173 508 -59 29 -76
33 -152 33 -47 0 -102 -4 -122 -9 l-37 -8 -57 113 c-31 63 -78 160 -105 217
l-48 102 110 55 c60 30 109 57 109 60 0 2 -43 98 -96 212 -776 1682 -1270
3465 -1471 5311 l-27 252 -51 -1 c-27 -1 -171 -13 -320 -28z"/>
<path d="M2620 8849 c-112 -22 -217 -107 -268 -217 -24 -50 -27 -69 -27 -157
0 -91 3 -105 29 -157 57 -113 174 -199 290 -213 l51 -7 44 -260 c31 -186 40
-262 32 -267 -6 -4 -70 -18 -141 -31 -90 -16 -130 -27 -130 -36 0 -81 301
-1398 325 -1422 2 -2 65 12 140 33 75 20 138 35 139 33 2 -2 124 -432 153
-539 3 -10 -6 -20 -26 -28 -49 -21 -122 -101 -155 -171 -28 -58 -31 -75 -31
-160 0 -82 4 -103 27 -152 35 -76 95 -138 170 -179 61 -33 67 -34 173 -34 102
0 114 2 168 29 71 36 140 108 175 184 24 50 27 69 27 157 0 89 -3 106 -28 157
-61 124 -180 204 -320 215 l-74 6 -76 270 c-53 186 -74 273 -66 278 6 3 58 19
115 34 60 16 104 33 104 40 0 6 -29 126 -64 266 -78 308 -132 547 -196 862
-27 131 -51 241 -54 244 -3 3 -56 -4 -117 -16 -62 -11 -114 -19 -116 -18 -5 5
-83 475 -83 499 0 18 13 30 53 51 139 72 214 203 205 356 -10 176 -135 318
-307 351 -61 11 -78 11 -141 -1z"/>
<path d="M1535 8111 c-32 -5 -40 -10 -38 -26 8 -73 82 -521 119 -724 75 -411
182 -902 279 -1281 l45 -175 -22 -14 c-13 -8 -48 -40 -79 -71 -74 -75 -102
-144 -102 -255 0 -107 27 -176 100 -255 68 -74 140 -110 236 -119 l70 -6 74
-234 c68 -213 73 -235 57 -244 -41 -23 -93 -81 -122 -134 -171 -323 160 -674
491 -520 81 38 132 89 174 174 35 71 38 83 38 162 -1 155 -76 276 -213 343
-61 30 -75 33 -158 33 l-92 0 -65 205 c-36 113 -68 214 -71 225 -4 16 3 24 35
39 59 29 143 124 170 193 31 80 31 196 0 275 -31 80 -106 159 -188 200 -53 26
-80 32 -148 36 l-84 4 -65 267 c-147 602 -259 1158 -341 1691 -33 212 -34 220
-48 219 -7 -1 -30 -5 -52 -8z"/>
<path d="M302 8060 c-62 -13 -157 -67 -198 -113 -20 -22 -50 -69 -68 -106 -27
-58 -31 -77 -31 -151 0 -74 4 -93 31 -151 18 -37 48 -85 69 -108 52 -58 158
-108 244 -117 l69 -6 17 -97 c10 -53 32 -172 50 -266 18 -93 32 -171 30 -173
-1 -1 -58 -14 -126 -29 -68 -14 -127 -29 -131 -32 -12 -10 228 -1150 246
-1168 1 -2 60 13 132 32 71 19 134 35 141 35 7 0 17 -19 23 -42 6 -24 38 -139
71 -257 56 -201 58 -214 42 -227 -10 -7 -22 -14 -26 -14 -21 -1 -113 -102
-141 -155 -29 -56 -31 -67 -31 -165 0 -95 3 -111 28 -162 64 -130 186 -209
331 -214 l80 -3 74 -217 c68 -201 72 -218 56 -227 -46 -26 -107 -95 -137 -156
-30 -61 -32 -73 -32 -166 0 -87 3 -107 27 -157 59 -126 176 -207 312 -216 95
-6 161 10 234 58 138 89 203 263 156 421 -49 163 -193 269 -367 269 l-74 0
-72 208 c-73 211 -78 232 -62 232 6 0 36 25 69 55 41 37 68 74 88 117 26 56
29 74 29 158 0 82 -4 103 -27 152 -35 75 -95 138 -166 176 -54 29 -147 51
-201 48 -21 -1 -27 6 -38 44 -21 71 -121 435 -125 455 -2 15 15 22 106 46 60
16 112 31 114 34 3 3 -13 85 -36 182 -22 98 -73 336 -112 528 -39 193 -77 369
-83 391 l-12 41 -123 -27 c-84 -18 -125 -23 -128 -16 -3 10 -57 291 -87 458
l-15 78 52 29 c66 37 111 88 150 171 26 57 30 76 30 151 0 80 -3 92 -37 162
-43 87 -94 137 -181 178 -68 32 -164 44 -234 29z"/>
<path d="M10417 6786 c-72 -30 -120 -66 -159 -120 -57 -78 -71 -122 -72 -226
-1 -86 2 -101 30 -160 39 -83 101 -145 184 -184 60 -28 74 -31 169 -31 l104 0
103 -185 c57 -102 104 -188 104 -192 0 -4 -49 -37 -109 -73 l-109 -67 232
-386 c315 -525 385 -634 403 -628 16 6 523 346 523 351 0 2 -34 56 -76 122
-42 65 -175 285 -297 488 -121 204 -224 374 -228 379 -4 5 -61 -24 -126 -63
-110 -67 -118 -71 -131 -54 -17 23 -143 253 -172 314 l-22 46 51 51 c29 29 64
78 79 110 24 50 27 69 27 162 0 100 -1 108 -34 168 -40 73 -98 130 -173 168
-45 23 -68 28 -148 31 -83 3 -102 1 -153 -21z"/>
<path d="M6819 6307 c-220 -77 -318 -321 -212 -530 67 -133 222 -215 378 -200
l50 5 85 -213 c47 -117 86 -215 87 -218 2 -3 -54 -30 -122 -60 -69 -30 -127
-57 -129 -60 -10 -17 359 -791 545 -1144 604 -1146 1247 -2104 2100 -3132
l121 -145 41 32 c76 59 457 379 457 383 0 2 -102 129 -228 282 -390 477 -602
753 -838 1093 -459 661 -864 1348 -1240 2100 -145 291 -364 760 -364 780 0 14
1 15 -122 -39 -62 -27 -116 -47 -119 -43 -4 4 -44 100 -90 214 l-83 207 57 55
c169 162 164 412 -10 566 -94 82 -243 110 -364 67z"/>
<path d="M8498 5282 c-21 -10 -38 -20 -38 -24 0 -26 278 -587 431 -869 l69
-126 -39 -41 c-173 -181 -121 -488 102 -596 95 -47 181 -53 302 -21 17 4 47
-36 192 -258 l173 -262 -38 -74 c-35 -70 -37 -79 -37 -170 0 -83 4 -104 27
-153 78 -168 267 -261 435 -215 l52 14 130 -161 c71 -89 153 -190 182 -225
l54 -64 -35 -70 c-32 -65 -35 -78 -35 -161 0 -81 3 -98 31 -156 39 -83 101
-145 184 -184 59 -28 74 -31 160 -31 82 0 103 4 152 27 153 72 238 229 216
400 -15 118 -93 225 -206 280 -62 31 -74 33 -168 33 -93 0 -105 -2 -161 -31
l-60 -31 -25 31 c-14 17 -74 90 -132 161 -59 72 -125 154 -148 182 l-40 52 36
43 c20 23 49 67 64 98 24 49 27 66 27 160 0 96 -2 110 -29 163 -35 68 -118
150 -181 178 -100 44 -228 44 -317 -2 -20 -10 -42 -19 -47 -19 -9 0 -300 430
-330 488 -11 20 -8 28 28 68 61 69 85 140 86 249 0 82 -3 96 -33 157 -80 162
-241 238 -434 205 l-47 -8 -61 113 c-75 139 -331 650 -388 776 -24 50 -48 92
-55 91 -7 0 -29 -8 -49 -17z"/>
<path d="M9858 5197 l-37 -23 90 -170 c181 -337 394 -693 610 -1017 l127 -191
-30 -35 c-17 -19 -43 -60 -57 -91 -22 -47 -26 -69 -26 -150 0 -83 4 -103 28
-155 81 -174 284 -266 452 -206 33 12 65 23 71 24 6 1 58 -56 116 -128 58 -71
137 -168 175 -214 l70 -84 -29 -56 c-79 -156 -44 -343 86 -457 74 -65 141 -88
251 -89 82 0 96 3 157 33 137 67 212 187 213 342 0 75 -4 93 -32 152 -93 196
-319 276 -513 181 l-54 -26 -48 55 c-27 30 -104 124 -172 208 l-123 154 38 58
c120 187 50 445 -148 543 -75 37 -205 47 -284 21 -28 -10 -52 -16 -54 -14 -2
2 -68 102 -148 223 -217 331 -417 668 -621 1048 -26 48 -52 87 -59 87 -7 0
-29 -11 -49 -23z"/>
</g>
</svg>
